<svg width="76" height="46" viewBox="0 0 76 46" fill="none" xmlns="http://www.w3.org/2000/svg">
<path d="M0.105225 38.9934L0.40333 0.639942L5.25891 0.342001L4.90017 36.2968L7.11828 37.6148L9.09891 38.0946L10.4783 37.3775L11.3776 30.4845L11.1958 12.3253L11.8576 0.639942H22.352L21.5739 38.0946L20.8564 41.1497L19.7751 44.624L8.92207 44.5028L2.80838 43.003L0.110277 38.9884L0.105225 38.9934ZM26.4294 0.458147L34.1044 0.69549L40.5819 31.0803L41.1225 27.904L39.3844 0.634892L46.0387 0.513696L48.6762 1.11463L47.4787 44.2604L42.1431 44.9775L36.8075 44.6795L33.2707 18.3699L32.0126 14.4765L32.1945 44.5583L26.0202 45.0987L25.7221 19.39L26.4395 0.453098L26.4294 0.458147ZM75.8947 6.27051L75.6572 38.751L74.9953 43.0636L73.0753 44.624L66.9616 45.2855L55.7499 44.2049L54.133 42.5889L52.9962 40.1296L53.2336 29.8229C53.2336 25.3286 53.2943 21.2534 53.4155 17.6579C53.3549 11.5476 53.4155 5.43223 53.5974 5.13429C53.5974 4.89695 53.9562 3.87689 54.6181 2.91742L55.3962 0.99848L64.8699 0.0996094L71.6454 0.937882L75.0054 2.25589L75.9048 6.27051H75.8947ZM65.0416 36.5342L67.2598 35.6353L67.9772 13.2241L66.5372 12.3859L60.7823 12.2647L60.2416 14.2997L60.3629 22.7481V36.1706L61.3229 36.3524L65.0416 36.5342Z" fill="#15171A"/>
</svg>
